<svg width="20" height="20" viewBox="0 0 20 20" fill="none" xmlns="http://www.w3.org/2000/svg">
<path d="M17.191 13.9967L14.4144 12.1818C14.136 12.0055 13.8004 11.9431 13.4772 12.0077C13.1541 12.0724 12.8682 12.2589 12.6791 12.5288C12.0383 13.3027 11.2641 14.5838 8.35405 11.6747C5.444 8.76561 6.6988 7.96494 7.47303 7.32441C7.74293 7.13534 7.92958 6.84959 7.99422 6.52652C8.05885 6.20346 7.99649 5.86792 7.8201 5.58962L6.00466 2.81397C5.76438 2.46701 5.444 1.90655 4.69647 2.0133C3.94893 2.12006 2 3.21431 2 5.61631C2 8.01832 3.89554 10.9541 6.48521 13.5429C9.07489 16.1318 12.0116 18 14.3877 18C16.7638 18 17.9118 15.8649 17.9919 15.3311C18.072 14.7973 17.5381 14.2369 17.191 13.9967Z" stroke="#4F4F4F" stroke-linejoin="round"/>
</svg>
