<svg width="20" height="20" viewBox="0 0 20 20" fill="none" xmlns="http://www.w3.org/2000/svg">
<path d="M0 6.89617V15.5942C0 16.9218 1.09388 18 2.44082 18H17.5592C18.9061 18 20 16.9218 20 15.5942V6.89617C20 5.6329 18.9592 4.60701 17.6776 4.60701H14.4286L14.351 4.27309C14.0367 2.93338 12.8408 2.00002 11.4449 2.00002H8.55102C7.15918 2.00002 5.96327 2.93338 5.6449 4.27309L5.56735 4.60701H2.32245C1.04082 4.60701 0 5.63693 0 6.89617ZM5.96735 5.59267C6.2 5.59267 6.4 5.43577 6.45306 5.21048L6.62041 4.49436C6.83265 3.60525 7.62449 2.98568 8.55102 2.98568H11.4449C12.3714 2.98568 13.1633 3.60525 13.3755 4.49436L13.5429 5.21048C13.5959 5.43175 13.7959 5.59267 14.0286 5.59267H17.6735C18.4041 5.59267 18.9959 6.17603 18.9959 6.89617V15.5942C18.9959 16.3787 18.351 17.0143 17.5551 17.0143H2.44082C1.6449 17.0143 1 16.3787 1 15.5942V6.89617C1 6.17603 1.59184 5.59267 2.32245 5.59267H5.96735Z" fill="#828282"/>
<path d="M3.21436 7.99388C3.4905 7.99388 3.71436 7.77002 3.71436 7.49388C3.71436 7.21774 3.4905 6.99388 3.21436 6.99388C2.93821 6.99388 2.71436 7.21774 2.71436 7.49388C2.71436 7.77002 2.93821 7.99388 3.21436 7.99388Z" fill="#828282"/>
<circle cx="10" cy="11" r="3.5" stroke="#828282"/>
</svg>
