<svg width="18" height="19" viewBox="0 0 18 19" fill="none" xmlns="http://www.w3.org/2000/svg">
<g clip-path="url(#clip0_1_867)">
<path d="M6.86998 16.7541C7.27981 16.7541 7.61203 16.4219 7.61203 16.0121C7.61203 15.6022 7.27981 15.27 6.86998 15.27C6.46016 15.27 6.12793 15.6022 6.12793 16.0121C6.12793 16.4219 6.46016 16.7541 6.86998 16.7541Z" stroke="white" stroke-width="2" stroke-linecap="round" stroke-linejoin="round"/>
<path d="M15.0321 16.7541C15.4419 16.7541 15.7741 16.4219 15.7741 16.0121C15.7741 15.6022 15.4419 15.27 15.0321 15.27C14.6223 15.27 14.29 15.6022 14.29 16.0121C14.29 16.4219 14.6223 16.7541 15.0321 16.7541Z" stroke="white" stroke-width="2" stroke-linecap="round" stroke-linejoin="round"/>
<path d="M0.933594 1.1709H3.9018L5.8905 11.107C5.95836 11.4486 6.14421 11.7555 6.41554 11.9739C6.68686 12.1923 7.02636 12.3083 7.3746 12.3017H14.5873C14.9356 12.3083 15.2751 12.1923 15.5464 11.9739C15.8177 11.7555 16.0036 11.4486 16.0715 11.107L17.2587 4.88116H4.64385" stroke="white" stroke-width="2" stroke-linecap="round" stroke-linejoin="round"/>
</g>
<defs>
<clipPath id="clip0_1_867">
<rect width="17.8092" height="17.8092" fill="white" transform="translate(0.191406 0.428955)"/>
</clipPath>
</defs>
</svg>
