<svg width="28" height="28" viewBox="0 0 28 28" fill="none" xmlns="http://www.w3.org/2000/svg">
<path d="M20.429 0.00582587L16.7912 0C12.7043 0 10.0631 2.70466 10.0631 6.89084V10.068H6.4055C6.08944 10.068 5.8335 10.3237 5.8335 10.6392V15.2425C5.8335 15.558 6.08973 15.8134 6.4055 15.8134H10.0631V27.4291C10.0631 27.7445 10.3191 28 10.6352 28H15.4073C15.7234 28 15.9793 27.7442 15.9793 27.4291V15.8134H20.256C20.572 15.8134 20.828 15.558 20.828 15.2425L20.8297 10.6392C20.8297 10.4877 20.7693 10.3427 20.6622 10.2355C20.5551 10.1283 20.4092 10.068 20.2574 10.068H15.9793V7.37468C15.9793 6.08017 16.2884 5.42301 17.9779 5.42301L20.4284 5.42214C20.7442 5.42214 21.0002 5.16638 21.0002 4.8512V0.576761C21.0002 0.261873 20.7445 0.00640846 20.429 0.00582587Z" fill="white"/>
</svg>
