<svg width="14" height="14" viewBox="0 0 14 14" fill="none" xmlns="http://www.w3.org/2000/svg">
<path fill-rule="evenodd" clip-rule="evenodd" d="M8.3335 2.33325V4.99992H12.1068C12.3001 4.99773 12.4915 5.03759 12.6679 5.11673C12.8442 5.19587 13.0012 5.31241 13.1281 5.45826C13.2549 5.60412 13.3485 5.7758 13.4024 5.96142C13.4563 6.14704 13.4692 6.34216 13.4402 6.53325L12.5202 12.5333C12.4719 12.8512 12.3105 13.141 12.0654 13.3493C11.8204 13.5575 11.5084 13.6702 11.1868 13.6666L4.66683 13.6666L4.66683 4.08325L6.3335 0.333252C6.86393 0.333252 7.37264 0.543966 7.74771 0.919038C8.12278 1.29411 8.3335 1.80282 8.3335 2.33325ZM2.66683 13.6666L2.66683 6.33325H1.66683C1.31321 6.33325 0.974069 6.47373 0.72402 6.72378C0.473972 6.97382 0.333496 7.31296 0.333496 7.66659V12.3333C0.333496 12.6869 0.473972 13.026 0.72402 13.2761C0.974069 13.5261 1.31321 13.6666 1.66683 13.6666H2.66683Z" fill="white"/>
</svg>
