<svg width="20" height="20" viewBox="0 0 20 20" fill="none" xmlns="http://www.w3.org/2000/svg">
<path d="M9.5 19.1668L9.22265 19.5829C9.3906 19.6948 9.6094 19.6948 9.77735 19.5829L9.5 19.1668ZM14.8033 3.03019L15.1569 2.67664L14.8033 3.03019ZM4.1967 3.03019L3.84315 2.67664L4.1967 3.03019ZM16.5 8.3335C16.5 11.0492 14.7421 13.6356 12.887 15.5938C11.9697 16.5621 11.0507 17.3536 10.3604 17.9033C10.0157 18.1778 9.72902 18.3912 9.52952 18.5353C9.42979 18.6073 9.35192 18.6619 9.29954 18.6982C9.27336 18.7163 9.25355 18.7299 9.24058 18.7387C9.2341 18.7431 9.22932 18.7463 9.22632 18.7483C9.22481 18.7494 9.22375 18.7501 9.22314 18.7505C9.22283 18.7507 9.22263 18.7508 9.22255 18.7509C9.22251 18.7509 9.22254 18.7509 9.22252 18.7509C9.22257 18.7509 9.22265 18.7508 9.5 19.1668C9.77735 19.5829 9.77749 19.5828 9.77766 19.5826C9.77775 19.5826 9.77794 19.5825 9.77813 19.5823C9.77851 19.5821 9.77899 19.5818 9.7796 19.5814C9.7808 19.5805 9.78246 19.5794 9.78456 19.578C9.78876 19.5752 9.79474 19.5712 9.80245 19.5659C9.81786 19.5555 9.84017 19.5402 9.86891 19.5203C9.9264 19.4805 10.0097 19.422 10.115 19.3459C10.3257 19.1938 10.6249 18.971 10.9833 18.6856C11.6993 18.1154 12.6553 17.2924 13.613 16.2815C15.5079 14.2814 17.5 11.4511 17.5 8.3335H16.5ZM14.4497 3.38375C15.7625 4.6965 16.5 6.47698 16.5 8.3335H17.5C17.5 6.21176 16.6571 4.17693 15.1569 2.67664L14.4497 3.38375ZM9.5 1.3335C11.3565 1.3335 13.137 2.07099 14.4497 3.38375L15.1569 2.67664C13.6566 1.17635 11.6217 0.333496 9.5 0.333496V1.3335ZM4.55025 3.38375C5.86301 2.07099 7.64348 1.3335 9.5 1.3335V0.333496C7.37827 0.333496 5.34344 1.17635 3.84315 2.67664L4.55025 3.38375ZM2.5 8.3335C2.5 6.47698 3.2375 4.6965 4.55025 3.38375L3.84315 2.67664C2.34285 4.17693 1.5 6.21176 1.5 8.3335H2.5ZM9.5 19.1668C9.77735 18.7508 9.77743 18.7509 9.77748 18.7509C9.77746 18.7509 9.77749 18.7509 9.77745 18.7509C9.77737 18.7508 9.77717 18.7507 9.77686 18.7505C9.77625 18.7501 9.77519 18.7494 9.77368 18.7483C9.77068 18.7463 9.7659 18.7431 9.75942 18.7387C9.74645 18.7299 9.72664 18.7163 9.70046 18.6982C9.64808 18.6619 9.57021 18.6073 9.47048 18.5353C9.27098 18.3912 8.98432 18.1778 8.63959 17.9033C7.94933 17.3536 7.03031 16.5621 6.11298 15.5938C4.25787 13.6356 2.5 11.0492 2.5 8.3335H1.5C1.5 11.4511 3.49213 14.2814 5.38702 16.2815C6.34469 17.2924 7.30067 18.1154 8.01666 18.6856C8.37506 18.971 8.67434 19.1938 8.88499 19.3459C8.99034 19.422 9.0736 19.4805 9.13109 19.5203C9.15983 19.5402 9.18214 19.5555 9.19755 19.5659C9.20526 19.5712 9.21124 19.5752 9.21544 19.578C9.21754 19.5794 9.2192 19.5805 9.2204 19.5814C9.22101 19.5818 9.22149 19.5821 9.22187 19.5823C9.22206 19.5825 9.22225 19.5826 9.22234 19.5826C9.22251 19.5828 9.22265 19.5829 9.5 19.1668ZM9.5 11.3335C11.1569 11.3335 12.5 9.99035 12.5 8.3335H11.5C11.5 9.43807 10.6046 10.3335 9.5 10.3335V11.3335ZM6.5 8.3335C6.5 9.99035 7.84315 11.3335 9.5 11.3335V10.3335C8.39543 10.3335 7.5 9.43807 7.5 8.3335H6.5ZM9.5 5.3335C7.84315 5.3335 6.5 6.67664 6.5 8.3335H7.5C7.5 7.22893 8.39543 6.3335 9.5 6.3335V5.3335ZM12.5 8.3335C12.5 6.67664 11.1569 5.3335 9.5 5.3335V6.3335C10.6046 6.3335 11.5 7.22893 11.5 8.3335H12.5Z" fill="#4F4F4F"/>
</svg>
