<svg width="90" height="61" viewBox="0 0 90 61" fill="none" xmlns="http://www.w3.org/2000/svg">
<g clip-path="url(#clip0_2_4695)">
<path d="M42.3337 3.02531e-05C40.01 0.413894 34.2728 2.24524 35.4792 10.188C35.4999 10.3173 35.546 10.4413 35.6149 10.5525C35.6837 10.6638 35.7739 10.7601 35.8802 10.8359C35.9864 10.9116 36.1066 10.9654 36.2337 10.9939C36.3608 11.0224 36.4923 11.0251 36.6205 11.0019C39.0196 10.5501 44.8459 8.63598 43.475 0.793268C43.4275 0.536145 43.2808 0.308391 43.067 0.159761C42.8531 0.0111316 42.5895 -0.0462938 42.3337 3.02531e-05Z" fill="white"/>
<path d="M4.64707 13.6403C4.47257 13.5926 4.28641 13.6163 4.12913 13.706C3.97186 13.7958 3.85621 13.9445 3.80739 14.1197C3.37213 15.72 2.79634 19.9104 8.13945 21.5313C8.22721 21.5575 8.31929 21.5657 8.41025 21.5555C8.50122 21.5453 8.58922 21.5168 8.66908 21.4718C8.74894 21.4268 8.81904 21.3662 8.87523 21.2935C8.93143 21.2207 8.97258 21.1375 8.99627 21.0485C9.4281 19.3999 9.98332 15.1061 4.64707 13.6403Z" fill="white"/>
<path d="M42.2278 51.2673C42.2483 51.0638 42.262 50.8845 42.2689 50.7362C42.2757 50.5879 42.2689 50.4602 42.2963 50.3671C42.3237 50.274 42.2963 50.1947 42.2963 50.1223C42.2963 50.0498 42.2963 49.9533 42.3374 49.8291H39.5682C39.5991 50.205 39.6265 50.5844 39.6402 50.9603C39.6539 51.3363 39.671 51.6915 39.671 52.0122V54.3057H36.5282V52.0122C36.5282 51.7294 36.5282 51.4121 36.5282 51.0638C36.5326 50.7372 36.5578 50.4111 36.6036 50.0878L36.631 49.8291H33.8755C33.8932 49.9247 33.9035 50.0216 33.9064 50.1188C33.9016 50.2015 33.9016 50.2844 33.9064 50.3671C33.9064 50.5672 33.9304 50.8707 33.9509 51.2673C33.9509 51.4328 33.9715 51.5777 33.9715 51.6949C33.9715 51.8122 33.9715 51.926 33.9715 52.0122V58.6789C33.9715 59.0238 33.9715 59.3687 33.9475 59.7411C33.9235 60.1136 33.9064 60.4757 33.8652 60.8517H36.607C36.607 60.731 36.5899 60.6309 36.5865 60.562C36.5831 60.493 36.5865 60.4137 36.5865 60.3309C36.5659 60.0653 36.5454 59.7756 36.5351 59.4583C36.5248 59.141 36.5351 58.8789 36.5351 58.6651V55.7922H39.6779V58.6651C39.6779 58.9824 39.6779 59.3549 39.647 59.7273C39.6162 60.0998 39.6128 60.493 39.5922 60.8517H42.334C42.2929 60.4344 42.262 60.0584 42.2483 59.7204C42.2346 59.3824 42.2243 59.0307 42.2243 58.6858V51.7087C42.2141 51.588 42.2175 51.4432 42.2278 51.2673Z" fill="white"/>
<path d="M53.582 60.186L53.4552 59.8411C53.4106 59.7204 53.3558 59.5756 53.2907 59.41C53.2256 59.2445 53.1776 59.0962 53.1364 58.9755C53.0953 58.8548 53.0508 58.7513 53.0165 58.6651L50.0862 49.8291H47.5054L47.6391 50.5361L44.8973 58.6789L44.6403 59.41C44.5443 59.6515 44.4586 59.8653 44.3764 60.0584C44.2941 60.2516 44.2324 60.4274 44.1776 60.5895L44.0576 60.8517H45.9255L45.9837 60.5895C46.0249 60.4274 46.066 60.2447 46.114 60.0584L46.2511 59.5066C46.2956 59.3342 46.3436 59.1617 46.3882 59.0272C46.4327 58.8927 46.4738 58.7582 46.5047 58.6651L46.724 58.0098H49.9525L50.1719 58.6651C50.2027 58.7513 50.2404 58.8686 50.2815 59.0272C50.3227 59.1859 50.3706 59.3721 50.4186 59.5618C50.4666 59.7515 50.518 59.9722 50.566 60.1964C50.614 60.4206 50.662 60.6378 50.7099 60.8517H53.8836L53.7259 60.5068C53.6642 60.3964 53.6197 60.2895 53.582 60.186ZM47.1696 56.5613L48.3863 52.671L49.5378 56.5613H47.1696Z" fill="white"/>
<path d="M59.9191 59.3962H58.1849V52.0122C58.1849 51.957 58.1849 51.8674 58.1849 51.7501C58.1849 51.6329 58.1849 51.4708 58.2089 51.2673C58.2295 50.8488 58.2466 50.5488 58.2603 50.3671C58.2603 50.2878 58.2603 50.2119 58.2603 50.136C58.2603 50.0602 58.2603 49.9602 58.2843 49.8291H55.5425V50.0878C55.5631 50.3878 55.5802 50.7017 55.5973 51.0259C55.6145 51.35 55.6145 51.6811 55.6145 52.0122V58.6789C55.6145 58.7306 55.6145 58.8134 55.6145 58.9341C55.6145 59.0548 55.6145 59.2135 55.5905 59.41C55.5905 59.6894 55.5905 59.917 55.5905 60.0998C55.591 60.2613 55.5807 60.4226 55.5596 60.5827L55.5322 60.8586H62.212V59.2859C61.7664 59.3342 61.3689 59.3686 61.0056 59.3824C60.6423 59.3962 60.2961 59.3962 59.9191 59.3962Z" fill="white"/>
<path d="M70.1939 50.174C70.1939 50.2809 70.2145 50.3878 70.2213 50.4982C70.2282 50.6085 70.2213 50.7189 70.2213 50.8431C70.2213 50.9672 70.2213 51.1086 70.2419 51.2707C70.2625 51.4328 70.2419 51.6156 70.2659 51.7467C70.2899 51.8777 70.2659 51.9674 70.2659 52.0157V57.4304C70.2842 57.7904 70.2306 58.1504 70.1082 58.4892C69.9645 58.8073 69.7246 59.0717 69.4228 59.2445C69.0595 59.4215 68.6611 59.5135 68.2575 59.5135C67.8539 59.5135 67.4555 59.4215 67.0922 59.2445C66.7898 59.0572 66.5694 58.7613 66.4753 58.4168C66.3898 58.0719 66.3529 57.7166 66.3657 57.3614V51.9984C66.3657 51.6122 66.3657 51.2569 66.3896 50.9362C66.4136 50.6154 66.4273 50.2464 66.4616 49.8291H63.6924C63.6924 49.974 63.7129 50.0947 63.7232 50.1981C63.7335 50.3016 63.7404 50.4016 63.7438 50.5016C63.7472 50.6016 63.7438 50.7155 63.7438 50.8465C63.7438 50.9776 63.7438 51.1086 63.7678 51.2811C63.7918 51.4535 63.7986 51.6467 63.7986 51.7674V57.5373C63.7997 58.0314 63.8987 58.5204 64.0899 58.9755C64.2622 59.3926 64.5244 59.7661 64.8577 60.0688C65.2125 60.3794 65.6265 60.6141 66.0743 60.7585C66.5964 60.9238 67.1413 61.0042 67.6886 60.9965C69.0218 60.9965 70.0294 60.7068 70.7114 60.1205C71.3935 59.5342 71.7396 58.6754 71.7396 57.5339V52.0157C71.7396 51.8156 71.7396 51.5535 71.767 51.2328C71.7944 50.912 71.8013 50.6223 71.8219 50.3706C71.8219 50.2913 71.839 50.2154 71.8424 50.1395C71.8458 50.0636 71.8424 49.9636 71.8664 49.8326H70.1528C70.1699 49.9533 70.1802 50.0705 70.1939 50.174Z" fill="white"/>
<path d="M81.0066 49.8291H73.3672V51.4846C73.7545 51.4294 74.0972 51.3914 74.3954 51.3638C74.6935 51.3363 74.9472 51.3259 75.1494 51.3259H75.9205V58.6651C75.9205 58.7134 75.9205 58.8099 75.9205 58.9479C75.9205 59.0858 75.9205 59.241 75.8965 59.41C75.8725 59.579 75.8657 59.7549 75.8588 59.9136C75.852 60.0722 75.8588 60.2033 75.8382 60.3309C75.8334 60.4078 75.8334 60.485 75.8382 60.562C75.8338 60.6591 75.8235 60.7558 75.8074 60.8517H78.5972C78.5766 60.6171 78.5561 60.3999 78.5424 60.2033C78.5286 60.0067 78.5115 59.7411 78.4944 59.41C78.4944 59.241 78.4738 59.0893 78.4704 58.9479C78.467 58.8065 78.4704 58.7134 78.4704 58.6651V51.3259H79.2621C79.4609 51.3259 79.7076 51.3432 80.0092 51.3638C80.3108 51.3845 80.6501 51.4294 81.0374 51.4846L81.0066 49.8291Z" fill="white"/>
<path d="M89.8422 60.4964C89.7942 60.3964 89.753 60.2895 89.7153 60.186C89.6776 60.0826 89.6331 59.9653 89.5885 59.8411C89.544 59.717 89.4891 59.5756 89.424 59.41C89.3589 59.2445 89.3109 59.0962 89.2698 58.9755C89.2287 58.8548 89.1841 58.7513 89.1464 58.6651L86.2195 49.8291H83.6251L83.7553 50.5361L81.0135 58.6789C80.9552 58.8375 80.873 59.0789 80.753 59.41C80.6571 59.6515 80.5748 59.8653 80.496 60.0584C80.4172 60.2516 80.3486 60.4274 80.2904 60.5895L80.1738 60.8517H82.0451L82.1034 60.5895C82.1411 60.4274 82.1856 60.2447 82.2336 60.0584L82.3707 59.5066C82.4118 59.3342 82.4598 59.1617 82.5044 59.0272C82.5489 58.8927 82.5935 58.7582 82.6209 58.6651L82.8437 58.0098H86.0722L86.2949 58.6651C86.3223 58.7513 86.36 58.8686 86.4012 59.0272C86.4423 59.1859 86.4903 59.3721 86.5383 59.5618C86.5862 59.7515 86.6342 59.9722 86.6822 60.1964C86.7302 60.4206 86.7782 60.6378 86.8262 60.8517H89.9998C89.9415 60.7172 89.8901 60.5999 89.8422 60.4964ZM83.3029 56.5613L84.5196 52.671L85.6814 56.5613H83.3029Z" fill="white"/>
<path d="M48.085 45.8836H49.73V31.9364L48.085 30.312V45.8836Z" fill="white"/>
<path d="M55.8647 45.2111C55.7136 45.2875 55.547 45.3277 55.378 45.3284C55.1956 45.333 55.0151 45.2901 54.8541 45.2036C54.6931 45.1172 54.5572 44.9903 54.4595 44.8352C54.2127 44.4193 54.0935 43.9394 54.1167 43.4556C54.1079 43.1131 54.1507 42.7713 54.2436 42.4417C54.3202 42.2003 54.4685 41.9885 54.6685 41.8347C54.7648 41.759 54.874 41.7018 54.9907 41.6657C55.1071 41.6293 55.2286 41.6118 55.3506 41.6139C55.5787 41.6271 55.7992 41.7015 55.9891 41.8295C56.179 41.9575 56.3313 42.1343 56.4301 42.3417V41.2001L56.1697 41.107C56.0897 41.0829 56.0085 41.0634 55.9263 41.0483C55.8461 41.0313 55.7648 41.0198 55.683 41.0138C55.6008 41.0138 55.5116 41.0138 55.4157 41.0138C55.0724 41.01 54.7316 41.072 54.4115 41.1966C54.1183 41.3109 53.8529 41.4873 53.6335 41.714C53.4159 41.9449 53.2459 42.2168 53.1331 42.5141C53.0079 42.8443 52.9463 43.1954 52.9515 43.5488C52.948 43.8833 53.0025 44.2159 53.1126 44.5317C53.2078 44.815 53.3581 45.0764 53.5547 45.3008C53.7456 45.5142 53.9792 45.6846 54.2401 45.8009C54.5159 45.9206 54.8137 45.9805 55.1141 45.9768C55.4013 45.9802 55.6865 45.9274 55.9538 45.8216C56.2388 45.6968 56.5008 45.5242 56.7283 45.3111L56.3753 44.8352C56.2229 44.9833 56.0511 45.1098 55.8647 45.2111Z" fill="white"/>
<path d="M59.2918 39.8516L59.7031 40.5172H60.2789L60.1315 40.3482L60.0218 40.2137L59.9258 40.0896L59.8333 39.9551C59.7785 39.8792 59.7339 39.8102 59.6928 39.7516C59.6517 39.693 59.6037 39.6033 59.5386 39.4929H59.0382C59.0054 39.5392 58.9756 39.5876 58.9491 39.6378C58.9217 39.6792 58.9011 39.7171 58.8737 39.7516L58.8051 39.8482C58.7811 39.8792 58.7606 39.9171 58.7332 39.9551L58.6338 40.0896C58.6063 40.1275 58.5755 40.1723 58.5412 40.2137L58.4316 40.3482C58.3939 40.3931 58.3459 40.4517 58.2842 40.5172H58.8702L59.2918 39.8516Z" fill="white"/>
<path d="M61.2901 45.5974L61.2353 45.4457C61.2147 45.394 61.1942 45.3284 61.1633 45.2595L61.0982 45.0698C61.0776 45.0146 61.0605 44.9698 61.0434 44.9318L59.7616 41.0691H58.634L58.6957 41.3795L57.4893 44.9387C57.4619 45.0077 57.4276 45.1146 57.3728 45.2595L57.2597 45.5423C57.2268 45.6176 57.1982 45.6947 57.174 45.7733L57.1191 45.8872H57.9383L57.9657 45.7733C57.9828 45.7009 57.9999 45.625 58.0205 45.5423C58.0411 45.4595 58.0616 45.3767 58.0788 45.3008C58.097 45.2297 58.1187 45.1594 58.1439 45.0905C58.1439 45.0249 58.1782 44.9767 58.1884 44.9318L58.2878 44.6456H59.6964L59.7958 44.9318C59.7958 44.9698 59.8233 45.0249 59.8438 45.0905C59.8644 45.156 59.8815 45.2353 59.9021 45.325C59.9226 45.4147 59.9432 45.5043 59.9672 45.6009L60.0289 45.8872H61.3998C61.3758 45.8285 61.3552 45.7768 61.3347 45.732C61.3159 45.6885 61.301 45.6435 61.2901 45.5974ZM58.49 44.011L59.0213 42.3141L59.5217 44.011H58.49Z" fill="white"/>
<path d="M64.8608 41.1657C64.8025 41.2795 64.7511 41.3829 64.7066 41.4795C64.662 41.5761 64.6243 41.6485 64.6003 41.7002L64.4187 42.0244L63.8292 43.1557L63.2603 42.0244L63.0889 41.7002L63.0066 41.5312C62.9587 41.4209 62.9244 41.3484 62.9038 41.3071C62.882 41.261 62.8625 41.2138 62.8456 41.1657L62.801 41.0691H61.4609L61.5398 41.207L61.598 41.3036L61.6837 41.4381C61.7248 41.5071 61.7797 41.5933 61.8414 41.7071C61.9031 41.8209 61.9339 41.8692 61.9682 41.9244C61.9859 41.9595 62.0065 41.9929 62.0299 42.0244L63.0272 43.8972V44.9318C63.0272 44.987 63.0272 45.056 63.0272 45.1353C63.0272 45.2146 63.0272 45.2974 63.0272 45.3836C63.0272 45.4698 63.0272 45.5595 63.0272 45.6457C63.0272 45.732 63.0272 45.8182 63.0101 45.8872H64.213V45.7733C64.213 45.6457 64.1925 45.5043 64.1856 45.3457C64.1788 45.187 64.1685 45.0525 64.1685 44.9318V43.8972L65.1967 42.0417L65.3886 41.7175L65.5805 41.3967C65.6319 41.3071 65.697 41.207 65.7724 41.0863H64.9328L64.8608 41.1657Z" fill="white"/>
<path d="M72.4662 45.663C72.432 45.6078 72.3908 45.5492 72.3463 45.4836C72.3017 45.4181 72.2537 45.3457 72.1989 45.2595L72.0755 45.0698L71.9933 44.9318L70.9445 43.1557L71.7294 42.0348C71.7671 41.9761 71.8048 41.9244 71.839 41.8761C71.8733 41.8278 71.9144 41.7727 71.9521 41.7175C71.9898 41.6623 72.0378 41.6071 72.0824 41.5416C72.1269 41.4761 72.1886 41.4002 72.2503 41.3036L72.4182 41.0691H71.5032C71.4655 41.1277 71.4415 41.176 71.4243 41.207L71.3764 41.3036L71.2701 41.4795C71.2256 41.5554 71.1776 41.6313 71.1296 41.7071L70.924 42.0348L70.5812 42.5866L70.2693 42.0348C70.1837 41.8761 70.1048 41.7416 70.0466 41.6209C69.9883 41.5002 69.9335 41.4002 69.8821 41.3105C69.8633 41.2774 69.8472 41.2428 69.8341 41.207C69.8341 41.176 69.8032 41.1277 69.7758 41.0691H68.3809L68.4597 41.1829C68.494 41.2415 68.542 41.3174 68.6071 41.4174L68.7888 41.7071C68.8882 41.8589 68.9601 41.9692 68.9978 42.0348L69.8786 43.5212L68.8882 44.9318C68.6928 45.2215 68.4563 45.5388 68.1787 45.8872H69.0938C69.1658 45.7699 69.2309 45.6595 69.2891 45.5423C69.3474 45.425 69.4125 45.3422 69.4742 45.2491L69.6936 44.9215L70.2351 44.0868L70.7115 44.9284L70.9 45.2491C70.9529 45.336 71.001 45.4258 71.0439 45.5181C71.1056 45.6388 71.1673 45.7595 71.2324 45.863H72.6205C72.5793 45.8113 72.5519 45.7664 72.5279 45.7354C72.5039 45.7044 72.4902 45.6975 72.4662 45.663Z" fill="white"/>
<path d="M76.8458 45.5974L76.7909 45.4457L76.719 45.2595C76.6916 45.187 76.671 45.1215 76.6504 45.0698L76.599 44.9318L75.3172 41.0691H74.1897L74.2479 41.3795L73.0415 44.9387L72.9284 45.2595L72.8153 45.5423C72.7824 45.6176 72.7538 45.6947 72.7296 45.7733L72.6748 45.8872H73.4939L73.5213 45.7733C73.5213 45.7009 73.5556 45.625 73.5762 45.5423C73.5967 45.4595 73.6173 45.3767 73.6344 45.3008C73.6516 45.225 73.6756 45.1525 73.6961 45.0905C73.7102 45.0366 73.7274 44.9837 73.7475 44.9318L73.8401 44.6456H75.2521L75.3515 44.9318C75.3515 44.9698 75.3789 45.0249 75.3995 45.0905C75.42 45.156 75.4372 45.2353 75.4577 45.325C75.4783 45.4147 75.5023 45.5043 75.5194 45.6009C75.5366 45.6975 75.564 45.794 75.5845 45.8872H76.9726C76.9452 45.8285 76.9246 45.7768 76.9006 45.732C76.8782 45.6889 76.8599 45.6439 76.8458 45.5974ZM74.0457 44.011L74.5769 42.3141L75.0773 44.011H74.0457Z" fill="white"/>
<path d="M80.609 41.5657C80.609 41.7278 80.609 41.8761 80.609 42.021V44.2593L78.6349 41.0691H77.6992C77.7232 41.414 77.7335 41.7347 77.7335 42.0244V45.0663C77.7335 45.1215 77.7335 45.187 77.7335 45.2595C77.7335 45.425 77.7335 45.5561 77.7129 45.6526C77.7129 45.6906 77.7129 45.7251 77.7129 45.7561C77.7167 45.7997 77.7167 45.8435 77.7129 45.8872H78.4566C78.4566 45.7354 78.4327 45.5699 78.4224 45.394C78.4121 45.2181 78.4224 45.0491 78.4224 44.9318V42.6487L80.441 45.8872H81.3424V45.7733C81.3254 45.6384 81.3173 45.5024 81.3184 45.3664V41.8968C81.3184 41.852 81.3184 41.783 81.3184 41.7002C81.3184 41.6175 81.3184 41.4726 81.3184 41.4002C81.3184 41.3278 81.3184 41.2622 81.3355 41.1933V41.0691H80.5815C80.5918 41.2415 80.6021 41.4036 80.609 41.5657Z" fill="white"/>
<path d="M86.1103 44.9387V41.8934C86.1103 41.8416 86.1103 41.7761 86.1103 41.7002C86.1103 41.6244 86.1103 41.5312 86.1308 41.4657C86.1514 41.4002 86.1308 41.3484 86.1308 41.3036C86.129 41.2692 86.129 41.2346 86.1308 41.2001C86.1308 41.1691 86.1308 41.1243 86.1308 41.0691H84.9176C84.9347 41.2346 84.945 41.414 84.9518 41.5657C84.9587 41.7175 84.9518 41.8865 84.9518 42.0244V43.028H83.5809V42.0244C83.5809 41.9037 83.5809 41.7658 83.5809 41.6071C83.5819 41.4652 83.5922 41.3235 83.6118 41.1829V41.0691H82.402C82.4041 41.1116 82.4041 41.1542 82.402 41.1967C82.402 41.2312 82.402 41.2657 82.402 41.3036C82.402 41.3416 82.402 41.5278 82.402 41.7002C82.402 41.7727 82.402 41.8347 82.402 41.8865C82.402 41.9382 82.402 41.9865 82.402 42.0244V44.9387C82.402 45.0905 82.402 45.2457 82.402 45.4043C82.402 45.563 82.3814 45.7251 82.3643 45.8872H83.5604C83.5604 45.8354 83.5604 45.7906 83.5604 45.7595V45.663C83.5604 45.5457 83.5398 45.4181 83.5364 45.2801C83.533 45.1422 83.5364 45.0249 83.5364 44.9353V43.6799H84.9073V44.9353C84.9073 45.0767 84.9073 45.2319 84.9073 45.4009C84.9073 45.5699 84.9073 45.7457 84.8833 45.8906H86.076C86.076 45.7113 86.0451 45.5457 86.0383 45.3974C86.0314 45.2491 86.1103 45.0939 86.1103 44.9387Z" fill="white"/>
<path d="M53.0918 33.1539H55.5217L54.1988 31.8743L43.8142 21.6899L43.0156 20.9104L34.9581 13.0229L33.8408 11.9296L31.5994 9.73265C30.4689 8.65032 28.9642 8.05333 27.4039 8.06814C25.8436 8.08295 24.3503 8.70838 23.2403 9.81197L10.2818 22.8314L9.42155 23.6902L1.32635 31.8157L0.825971 32.3227L0 33.1573H2.39909L5.0655 30.4844L5.53161 30.0051L7.17669 28.3565L7.70792 27.8219L10.4772 25.0421L20.3374 37.5408L14.7544 36.6165C13.9455 35.337 12.1428 33.5712 8.80122 35.1128C8.73684 35.143 8.67913 35.186 8.63152 35.239C8.58391 35.2921 8.54736 35.3542 8.52403 35.4217C8.5007 35.4893 8.49107 35.5608 8.49571 35.6322C8.50035 35.7035 8.51916 35.7732 8.55103 35.8371C9.14052 37.0304 11.005 39.8309 14.8503 37.934L14.9086 37.8995L21.8351 39.4411L27.4181 46.4906L25.468 56.9407L20.9372 52.9331L21.0023 52.8848C21.8865 52.0812 23.8469 49.7808 21.2765 46.8596C21.2346 46.811 21.1835 46.7712 21.1261 46.7427C21.0687 46.7142 21.0063 46.6975 20.9424 46.6937C20.8785 46.6898 20.8145 46.6988 20.7542 46.7202C20.6939 46.7416 20.6384 46.775 20.591 46.8183C19.837 47.4873 18.2742 49.2704 19.5423 51.7053L11.7555 44.8076L11.4128 45.9319L15.1828 49.7256C13.7536 49.1428 11.7007 49.0359 9.64433 51.4984C9.59541 51.5567 9.55867 51.6244 9.53627 51.6973C9.51387 51.7702 9.50629 51.8469 9.51396 51.9229C9.52164 51.9988 9.54441 52.0724 9.58094 52.1393C9.61747 52.2062 9.667 52.265 9.72658 52.3123C10.8336 53.1883 13.901 55.03 16.773 51.4225L16.8107 51.3639L24.7483 59.3652H9.14737C8.625 59.3643 8.12427 59.1551 7.75489 58.7834C7.38552 58.4117 7.1776 57.9078 7.17669 57.3821V30.4327L5.53161 32.0744V57.3649C5.53205 57.8418 5.62601 58.3139 5.80809 58.7541C5.99017 59.1944 6.25679 59.5942 6.59268 59.9306C6.92857 60.267 7.32713 60.5334 7.76551 60.7146C8.20389 60.8957 8.67348 60.988 9.14737 60.9862H27.8328V60.7999H27.85L30.112 45.6249L33.7209 42.4554L43.2418 44.6006L43.7011 43.7488L35.1603 41.1932L41.7921 35.3784C43.139 35.3784 46.3298 34.9542 46.4326 30.7293C46.4345 30.5908 46.3825 30.457 46.2877 30.3565C46.193 30.256 46.0629 30.1967 45.9254 30.1913C44.6881 30.1568 41.5967 30.4844 41.2369 34.4955L36.9802 37.7857C37.4395 36.6338 37.4429 35.1094 35.9794 33.3401C35.892 33.2354 35.7672 33.1694 35.6319 33.1565C35.4966 33.1436 35.3617 33.1848 35.2563 33.2711C34.3138 34.0575 32.2129 36.3406 34.6531 39.5825L30.5404 42.7589L32.3911 30.343L32.4117 30.3948L42.4535 22.7418L47.5053 27.6943L48.0845 28.2599L49.7296 29.874L53.0918 33.1677V33.1539ZM41.5864 21.8795L32.7578 27.884L34.6599 15.0956L41.5864 21.8795ZM21.5438 35.9268L21.2011 31.6226L25.0979 23.2487C26.551 22.6728 29.9337 20.7828 28.1824 16.0717C28.1226 15.9176 28.005 15.7933 27.855 15.7256C27.705 15.6578 27.5346 15.6521 27.3804 15.7095C25.9752 16.2407 22.6028 18.0582 24.2959 22.8832C24.3041 22.9059 24.3144 22.9279 24.3267 22.9487L20.9543 28.9187L20.4059 22.3658L19.3778 22.121L19.6965 33.7988L11.3854 24.142L24.4433 11.0363C25.2391 10.2462 26.309 9.79843 27.4269 9.78749C28.5448 9.77655 29.6231 10.2033 30.4341 10.9777L33.4775 13.961L27.9768 43.4073L21.5438 35.9268Z" fill="white"/>
</g>
<defs>
<clipPath id="clip0_2_4695">
<rect width="90" height="61" fill="white"/>
</clipPath>
</defs>
</svg>
