<svg width="67" height="64" viewBox="0 0 67 64" fill="none" xmlns="http://www.w3.org/2000/svg">
<path d="M33.5 0.00622297C15.395 -0.334744 0.413385 13.3784 0 30.6699C0.0472402 39.4719 4.12783 47.8128 11.1666 53.4943V62.6668C11.1666 63.4031 11.7916 64 12.5625 64C12.8241 64 13.0804 63.9298 13.3022 63.7974L21.0826 59.1552C25.0466 60.6033 29.256 61.3418 33.5 61.3336C51.605 61.6746 66.5866 47.9614 67 30.67C66.5866 13.3784 51.605 -0.334744 33.5 0.00622297Z" fill="url(#paint0_linear_1_598)"/>
<path d="M55.5535 21.871C55.1381 21.3393 54.3767 21.1802 53.7669 21.4976L39.2503 29.0569L30.2193 21.6602C29.6655 21.2068 28.8395 21.2369 28.3238 21.7296L11.5738 37.728C11.0304 38.2502 11.033 39.0944 11.5799 39.6135C12.0171 40.0286 12.6874 40.1205 13.2293 39.8398L27.7459 32.2806L36.7853 39.6798C37.3391 40.1333 38.1651 40.1032 38.6808 39.6105L55.4307 23.6121C55.9188 23.1415 55.9712 22.3999 55.5535 21.871Z" fill="#FAFAFA"/>
<defs>
<linearGradient id="paint0_linear_1_598" x1="4.1216" y1="56.6857" x2="57.6835" y2="54.1215" gradientUnits="userSpaceOnUse">
<stop stop-color="#007934"/>
<stop offset="1" stop-color="#B3D7C2"/>
</linearGradient>
</defs>
</svg>
