<svg width="28" height="31" viewBox="0 0 28 31" fill="none" xmlns="http://www.w3.org/2000/svg">
<path d="M3.4882 18.596H20.523C20.6842 18.8626 20.8811 19.1107 21.1121 19.3308L22.2283 20.3881C22.0832 20.9335 21.8636 21.4562 21.5757 21.9415C21.2841 22.449 20.9259 22.9151 20.5106 23.3275L19.2797 22.9167C18.5742 22.6846 17.812 22.6902 17.11 22.9327C16.408 23.1752 15.8048 23.6412 15.393 24.2593L14.2737 25.9026C13.8008 26.6017 13.5841 27.4428 13.6604 28.2833C13.7367 29.1239 14.1012 29.9122 14.6923 30.5148L15.0442 30.8682C14.2055 30.9566 13.3234 31 12.3963 31C7.91588 31 4.44629 29.9814 2.02315 27.8994C1.38833 27.3535 0.878903 26.6769 0.529723 25.9159C0.180543 25.155 -0.000151466 24.3276 9.52645e-08 23.4903V22.0842C9.52645e-08 21.6261 0.090225 21.1725 0.265523 20.7493C0.440822 20.3261 0.69776 19.9415 1.02167 19.6176C1.34558 19.2937 1.73012 19.0368 2.15332 18.8615C2.57653 18.6862 3.03012 18.596 3.4882 18.596ZM21.7152 15.8752L22.495 14.035C22.8609 13.1714 23.7368 12.7017 24.5972 12.8815L24.7802 12.9296L25.7569 13.2427C26.7273 13.5528 27.4684 14.3822 27.7087 15.424C28.2777 17.9014 27.594 20.9168 25.6592 24.4701C23.7259 28.0203 21.6067 30.1535 19.3029 30.8729C18.8632 31.0089 18.3962 31.0315 17.9455 30.9385C17.4947 30.8455 17.0748 30.64 16.7247 30.3411L16.5325 30.1659L15.7915 29.4218C15.4796 29.1005 15.2782 28.6882 15.2163 28.2448C15.1544 27.8013 15.2353 27.3496 15.4473 26.9552L15.5558 26.7754L16.6751 25.1321C17.1154 24.4856 17.8689 24.1786 18.5929 24.3337L18.7898 24.3879L20.8548 25.0763C21.6928 24.4367 22.394 23.6354 22.9167 22.7198C23.3688 21.9596 23.6817 21.1249 23.8407 20.2548L23.8996 19.8378L22.1803 18.2053C21.9029 17.935 21.7057 17.5933 21.6105 17.2179C21.5152 16.8425 21.5257 16.4481 21.6408 16.0783L21.7152 15.8752L22.495 14.035L21.7152 15.8752ZM12.3963 0C13.4142 -1.51686e-08 14.4222 0.200499 15.3627 0.590051C16.3031 0.979603 17.1577 1.55058 17.8775 2.27038C18.5973 2.99017 19.1682 3.8447 19.5578 4.78516C19.9473 5.72562 20.1478 6.7336 20.1478 7.75155C20.1478 8.7695 19.9473 9.77748 19.5578 10.7179C19.1682 11.6584 18.5973 12.5129 17.8775 13.2327C17.1577 13.9525 16.3031 14.5235 15.3627 14.913C14.4222 15.3026 13.4142 15.5031 12.3963 15.5031C10.3404 15.5031 8.3688 14.6864 6.91511 13.2327C5.46141 11.779 4.64473 9.80739 4.64473 7.75155C4.64473 5.69571 5.46141 3.72407 6.91511 2.27038C8.3688 0.816679 10.3404 0 12.3963 0Z" fill="#007934"/>
</svg>
