<svg width="24" height="24" viewBox="0 0 24 24" fill="none" xmlns="http://www.w3.org/2000/svg">
<path d="M22.0672 17.5954L18.18 15.0546C17.7903 14.8077 17.3204 14.7204 16.8679 14.8109C16.4155 14.9013 16.0153 15.1626 15.7505 15.5403C14.8535 16.6239 13.7695 18.4174 9.69548 14.3446C5.62141 10.2719 7.37812 9.15097 8.46205 8.25422C8.8399 7.98952 9.10122 7.58947 9.19171 7.13718C9.2822 6.6849 9.19489 6.21514 8.94794 5.82552L6.40632 1.93961C6.06993 1.45387 5.62141 0.669213 4.57486 0.818671C3.52831 0.968129 0.799805 2.50008 0.799805 5.86289C0.799805 9.2257 3.45356 13.3358 7.0791 16.9602C10.7047 20.5845 14.8161 23.2 18.1426 23.2C21.4692 23.2 23.0764 20.2109 23.1885 19.4636C23.3006 18.7163 22.5531 17.9316 22.0672 17.5954Z" fill="white"/>
</svg>
