<svg width="80" height="80" viewBox="0 0 80 80" fill="none" xmlns="http://www.w3.org/2000/svg">
<rect x="0.5" y="0.5" width="79" height="79" rx="3.5" stroke="#DBDBDB"/>
<path d="M32.5581 52.1475L29.7383 60H28.8198L26 52.1475H26.9561L28.793 57.3198C28.8682 57.5275 28.9344 57.7262 28.9917 57.916C29.0526 58.1058 29.1063 58.2884 29.1528 58.4639C29.1994 58.6393 29.2406 58.8094 29.2764 58.9741C29.3122 58.8094 29.3534 58.6393 29.3999 58.4639C29.4465 58.2848 29.5002 58.1004 29.561 57.9106C29.6219 57.7173 29.6899 57.515 29.7651 57.3037L31.5913 52.1475H32.5581ZM34.395 54.1133V60H33.5034V54.1133H34.395ZM33.96 51.9111C34.1068 51.9111 34.2321 51.9595 34.3359 52.0562C34.4434 52.1493 34.4971 52.2961 34.4971 52.4966C34.4971 52.6935 34.4434 52.8403 34.3359 52.937C34.2321 53.0337 34.1068 53.082 33.96 53.082C33.806 53.082 33.6771 53.0337 33.5732 52.937C33.473 52.8403 33.4229 52.6935 33.4229 52.4966C33.4229 52.2961 33.473 52.1493 33.5732 52.0562C33.6771 51.9595 33.806 51.9111 33.96 51.9111ZM38.3804 60.1074C37.6356 60.1074 37.0448 59.8532 36.6079 59.3447C36.1746 58.8363 35.958 58.0807 35.958 57.0781C35.958 56.0648 36.18 55.3003 36.624 54.7847C37.068 54.2655 37.6589 54.0059 38.3965 54.0059C38.708 54.0059 38.9801 54.047 39.2129 54.1294C39.4456 54.2118 39.6462 54.3228 39.8145 54.4624C39.9827 54.5985 40.1242 54.7542 40.2388 54.9297H40.3032C40.2889 54.8187 40.2746 54.6665 40.2603 54.4731C40.2459 54.2798 40.2388 54.1222 40.2388 54.0005V51.6426H41.1304V60H40.4106L40.2764 59.1621H40.2388C40.1278 59.3376 39.9863 59.4969 39.8145 59.6401C39.6462 59.7834 39.4438 59.8979 39.2075 59.9839C38.9748 60.0662 38.6991 60.1074 38.3804 60.1074ZM38.52 59.3662C39.1502 59.3662 39.596 59.1872 39.8574 58.8291C40.1188 58.471 40.2495 57.9393 40.2495 57.2339V57.0728C40.2495 56.3244 40.1242 55.7497 39.8735 55.3486C39.6265 54.9476 39.1753 54.7471 38.52 54.7471C37.9722 54.7471 37.5622 54.9583 37.29 55.3809C37.0179 55.7998 36.8818 56.3727 36.8818 57.0996C36.8818 57.8229 37.0161 58.3815 37.2847 58.7754C37.5568 59.1693 37.9686 59.3662 38.52 59.3662ZM45.2876 54.0059C45.7889 54.0059 46.2186 54.1169 46.5767 54.3389C46.9347 54.5609 47.2087 54.8724 47.3984 55.2734C47.5882 55.6709 47.6831 56.1364 47.6831 56.6699V57.2231H43.6172C43.6279 57.9142 43.7998 58.4406 44.1328 58.8022C44.4658 59.1639 44.9349 59.3447 45.54 59.3447C45.9124 59.3447 46.2419 59.3107 46.5283 59.2427C46.8148 59.1746 47.112 59.0744 47.4199 58.9419V59.7261C47.1227 59.8586 46.8273 59.9552 46.5337 60.0161C46.2437 60.077 45.8999 60.1074 45.5024 60.1074C44.9367 60.1074 44.4425 59.9928 44.02 59.7637C43.6011 59.5309 43.2752 59.1908 43.0425 58.7432C42.8097 58.2956 42.6934 57.7477 42.6934 57.0996C42.6934 56.4658 42.799 55.918 43.0103 55.4561C43.2251 54.9906 43.5259 54.6325 43.9126 54.3818C44.3029 54.1312 44.7612 54.0059 45.2876 54.0059ZM45.2769 54.7363C44.8006 54.7363 44.4211 54.8921 44.1382 55.2036C43.8553 55.5151 43.687 55.9502 43.6333 56.5088H46.7485C46.745 56.1579 46.6895 55.8499 46.582 55.585C46.4782 55.3164 46.3188 55.1087 46.104 54.9619C45.8892 54.8115 45.6134 54.7363 45.2769 54.7363ZM54.2734 57.0459C54.2734 57.5293 54.2108 57.9608 54.0854 58.3403C53.9601 58.7199 53.7793 59.0404 53.543 59.3018C53.3066 59.5632 53.0202 59.7637 52.6836 59.9033C52.3506 60.0394 51.9728 60.1074 51.5503 60.1074C51.1564 60.1074 50.7948 60.0394 50.4653 59.9033C50.1395 59.7637 49.8566 59.5632 49.6167 59.3018C49.3804 59.0404 49.196 58.7199 49.0635 58.3403C48.9346 57.9608 48.8701 57.5293 48.8701 57.0459C48.8701 56.4014 48.9793 55.8535 49.1978 55.4023C49.4162 54.9476 49.7277 54.6021 50.1323 54.3657C50.5405 54.1258 51.0257 54.0059 51.5879 54.0059C52.125 54.0059 52.5941 54.1258 52.9951 54.3657C53.3997 54.6056 53.7131 54.953 53.9351 55.4077C54.1606 55.8589 54.2734 56.4049 54.2734 57.0459ZM49.7939 57.0459C49.7939 57.5186 49.8566 57.9285 49.9819 58.2759C50.1073 58.6232 50.3006 58.8918 50.562 59.0815C50.8234 59.2713 51.16 59.3662 51.5718 59.3662C51.98 59.3662 52.3148 59.2713 52.5762 59.0815C52.8411 58.8918 53.0363 58.6232 53.1616 58.2759C53.2869 57.9285 53.3496 57.5186 53.3496 57.0459C53.3496 56.5768 53.2869 56.1722 53.1616 55.832C53.0363 55.4883 52.8429 55.2233 52.5815 55.0371C52.3201 54.8509 51.9818 54.7578 51.5664 54.7578C50.9541 54.7578 50.5047 54.9601 50.2183 55.3647C49.9354 55.7694 49.7939 56.3298 49.7939 57.0459Z" fill="#333333"/>
<path d="M24 39V25C24 22.7909 25.7909 21 28 21H52C54.2091 21 56 22.7909 56 25V39C56 41.2091 54.2091 43 52 43H28C25.7909 43 24 41.2091 24 39Z" stroke="#4F4F4F" stroke-linecap="round" stroke-linejoin="round"/>
<path d="M36 26.5V37.5L46.5 32L36 26.5Z" stroke="#4F4F4F" stroke-linecap="round" stroke-linejoin="round"/>
</svg>
